<svg width="111" height="104" viewBox="0 0 111 104" fill="none" xmlns="http://www.w3.org/2000/svg">
<path d="M55.9 0.100006C59.5443 0.100006 63.0393 1.43431 65.6161 3.80939C68.193 6.18447 69.6407 9.40577 69.6407 12.7646C69.6407 16.1235 68.193 19.3448 65.6161 21.7199C63.0393 24.095 59.5443 25.4293 55.9 25.4293C52.2558 25.4293 48.7608 24.095 46.1839 21.7199C43.6071 19.3448 42.1594 16.1235 42.1594 12.7646C42.1594 9.40577 43.6071 6.18447 46.1839 3.80939C48.7608 1.43431 52.2558 0.100006 55.9 0.100006ZM77.1706 17.8305C88.8776 17.8305 99.8701 27.9622 99.8701 38.0939C114.71 38.0939 114.71 58.3573 99.8701 58.3573H11.93C-2.90993 58.3573 -2.90993 38.0939 11.93 38.0939C11.93 27.9622 22.9225 17.8305 34.6295 17.8305C37.0479 26.5944 45.677 33.0281 55.9 33.0281C66.1231 33.0281 74.7522 26.5944 77.1706 17.8305ZM17.4262 68.489H33.915L39.4113 103.95H28.4188L17.4262 68.489ZM44.9075 68.489H66.8926L61.3963 103.95H50.4038L44.9075 68.489ZM77.8851 68.489H94.3739L83.3813 103.95H72.3888L77.8851 68.489Z" fill="black"/>
</svg>
